PathFileType	4	(X/Y/Z)	 s04c0101.trc
DataRate	CameraRate	NumFrames	NumMarkers	Units	OrigDataRate	OrigDataStartFrame	OrigNumFrames
200	200	6	51	mm	200	1501	2000
Frame#	Time	racr			lacr			c7			jug			rlel			rdr			llel			ldr			s2			lic			ric			lasi			rasi			rpsi			lpsi			rgt			lgt			rth1			rth2			rth3			rth4			rlfc			rmfc			rsh1			rsh2			rsh3			rsh4			rlmal			rmmal			rcal			rtoe			rmt5			lth1			lth2			lth4			lth3			llfc			lmfc			lsh1			lsh2			lsh3			lsh4			llmal			lmmal			lcal			ltoe			lmt1			lmt5			SBIKE			LBIKE			RBIKE			
		X1	Y1	Z1	X2	Y2	Z2	X3	Y3	Z3	X4	Y4	Z4	X5	Y5	Z5	X6	Y6	Z6	X7	Y7	Z7	X8	Y8	Z8	X9	Y9	Z9	X10	Y10	Z10	X11	Y11	Z11	X12	Y12	Z12	X13	Y13	Z13	X14	Y14	Z14	X15	Y15	Z15	X16	Y16	Z16	X17	Y17	Z17	X18	Y18	Z18	X19	Y19	Z19	X20	Y20	Z20	X21	Y21	Z21	X22	Y22	Z22	X23	Y23	Z23	X24	Y24	Z24	X25	Y25	Z25	X26	Y26	Z26	X27	Y27	Z27	X28	Y28	Z28	X29	Y29	Z29	X30	Y30	Z30	X31	Y31	Z31	X32	Y32	Z32	X33	Y33	Z33	X34	Y34	Z34	X35	Y35	Z35	X36	Y36	Z36	X37	Y37	Z37	X38	Y38	Z38	X39	Y39	Z39	X40	Y40	Z40	X41	Y41	Z41	X42	Y42	Z42	X43	Y43	Z43	X44	Y44	Z44	X45	Y45	Z45	X46	Y46	Z46	X47	Y47	Z47	X48	Y48	Z48	X49	Y49	Z49	X50	Y50	Z50	X51	Y51	Z51	
1501	7.5050	438.228636	1430.233196	-95.198861	450.402782	1437.761805	-399.425411	394.822701	1515.555018	-248.174582	423.724486	1362.442646	-254.833588	509.613823	1132.015999	0.519565	693.607825	908.454312	-88.474230	524.795383	1164.284807	-504.588907	700.250574	911.367092	-440.248189	-84.731349	1159.928100	-276.834605	73.161428	1201.185238	-428.298032	61.901371	1186.169012	-106.784412	112.996785	1154.760551	-383.790486	110.438699	1141.278667	-154.482195	-68.821965	1206.255339	-228.904020	-66.174890	1210.755847	-308.373136	22.939773	1116.097224	-93.662944	45.403727	1095.345789	-457.099874	144.951014	1011.162220	-75.542953	225.705714	974.567686	-74.591446	277.955986	906.805769	-72.276306	247.038485	1001.005305	-91.181397	365.470717	791.535303	-92.052053	353.564295	777.072917	-206.218044	271.477464	710.565739	-74.109279	221.413494	638.877485	-95.122470	142.231075	607.545672	-107.046344	245.415330	618.883561	-118.223447	32.910161	505.969744	-125.011512	61.290463	501.439280	-208.418701	-38.960625	519.982021	-168.290233	192.272658	328.969135	-151.487507	123.062027	349.198429	-97.817685	114.224210	1023.951079	-471.158901	196.269357	995.997507	-475.144354	217.131967	1025.701241	-465.652813	255.066660	928.624545	-475.717636	372.700125	818.343115	-452.170566	409.207897	801.782044	-343.574330	368.606782	696.133538	-472.936717	376.384790	611.732527	-451.193084	341.291844	530.333509	-448.575388	404.893288	611.323667	-424.272856	315.669062	386.767391	-440.088119	311.412776	389.544870	-352.444875	235.018437	381.207094	-398.326532	527.272366	300.378218	-398.708875	451.935012	296.319858	-351.261777	450.918767	280.988363	-460.852849	-180.082946	940.618263	-278.678005	-4.387491	85.534494	-483.924215	-15.900168	80.271257	-83.304623	
1502	7.5100	437.752995	1429.772791	-94.492682	450.619031	1437.822136	-398.691255	395.164288	1515.223762	-247.576994	423.777435	1362.097866	-254.343157	509.265579	1131.707619	1.001825	693.432978	908.476272	-88.878190	525.192028	1164.506241	-504.353278	700.338657	911.201801	-440.193548	-84.363913	1160.029996	-277.764190	74.075418	1200.554602	-428.636671	61.365430	1186.459596	-107.208889	113.470998	1153.989706	-383.437578	110.296189	1141.396100	-154.618949	-67.214542	1205.974739	-229.346627	-65.737107	1210.935472	-309.442128	23.134036	1116.805947	-93.813934	45.814787	1094.103935	-457.417055	146.226919	1013.655891	-76.037883	227.508112	978.303832	-75.083866	280.729670	911.219074	-72.549732	248.468560	1004.825402	-92.151962	369.426349	797.004269	-92.094710	357.082015	782.164817	-206.406033	275.119010	716.638852	-74.607082	224.090996	645.464171	-95.541896	144.578374	615.001598	-107.256358	247.867926	625.446809	-118.622360	34.275425	514.456040	-125.282373	62.063452	509.910081	-208.915219	-37.980512	528.035875	-168.485180	194.536089	338.704630	-151.527711	125.202240	358.482445	-97.847252	113.874082	1020.998864	-471.819506	195.197202	991.074501	-475.696323	216.249750	1019.774419	-465.794024	252.409041	922.251761	-475.768364	367.991727	810.344870	-452.422455	404.050209	793.591405	-343.654138	364.201004	687.798483	-473.115693	372.715904	603.517343	-451.351463	338.299147	521.882085	-448.686525	401.240421	603.388738	-424.386413	313.678500	378.131886	-440.348881	309.501936	381.005402	-352.519972	233.192974	373.098921	-398.547485	525.169506	291.098192	-398.861284	449.877781	287.231245	-351.411072	448.754164	271.960069	-460.974365	-180.072486	940.617027	-278.765827	-4.378524	85.504609	-483.914989	-15.886780	80.289928	-83.317995	
1503	7.5150	437.289519	1429.417369	-93.915856	450.902987	1437.869260	-397.949441	395.507109	1514.943295	-246.808678	423.876741	1361.681140	-253.772864	508.919063	1131.418441	1.476966	693.590722	908.802955	-88.964174	525.542068	1164.694282	-504.104945	700.383308	911.018121	-440.118891	-84.023569	1160.175294	-278.705357	75.105850	1200.222565	-428.986171	61.179896	1186.844242	-107.880345	114.348178	1153.546089	-383.760348	110.160084	1141.643264	-154.742159	-66.745471	1205.876695	-230.630869	-65.199860	1211.335216	-311.035292	23.291713	1117.575365	-93.903514	46.220746	1092.995796	-457.769161	147.528009	1016.317452	-76.446796	229.294650	981.959397	-75.678097	283.407834	915.701987	-72.804860	249.531262	1008.380558	-93.153197	373.337800	802.436201	-92.314630	360.553513	787.622908	-206.584362	278.400617	723.203866	-75.043924	226.830947	652.261821	-95.810696	147.002762	622.570893	-107.502619	250.296201	631.936095	-119.123536	35.810408	522.964085	-125.461374	62.446852	518.439244	-209.566014	-36.906148	535.945546	-168.581512	197.348749	348.693701	-151.438124	127.761237	368.000964	-97.793004	113.329696	1018.199323	-472.500681	193.940124	986.271246	-476.280502	215.509739	1014.488621	-466.373503	249.324349	916.111051	-475.801076	362.943985	802.659433	-452.667029	398.759816	785.845226	-343.752733	359.670127	679.908717	-473.189599	368.975945	595.679381	-451.472420	335.195458	513.853498	-448.888854	397.535202	595.651795	-424.575356	311.535980	369.822867	-440.516735	307.581970	372.633733	-352.552674	231.248148	365.262547	-398.657226	522.725603	281.465104	-398.962769	447.437843	278.079662	-351.635255	446.182502	262.879337	-461.080355	-180.150208	940.624301	-278.853729	-4.379518	85.488140	-483.903823	-15.887206	80.280515	-83.334547	
1504	7.5200	436.828327	1429.113995	-93.245822	451.303228	1437.874709	-397.158875	395.917123	1514.410152	-246.238267	424.020984	1361.322637	-253.221324	508.615881	1131.159349	1.939984	693.495771	909.006423	-88.391574	525.847261	1164.973066	-503.818535	700.427328	910.828271	-440.080301	-83.712402	1160.386294	-279.622785	76.061388	1199.816801	-429.387513	60.892992	1187.138050	-108.517496	115.039147	1152.971110	-383.805283	109.871338	1141.918568	-155.164233	-66.658278	1206.088735	-231.458784	-64.740901	1211.381200	-311.878357	23.436708	1118.510488	-93.958702	46.492281	1091.951572	-458.100794	148.681859	1019.009894	-76.949321	230.907921	985.702717	-76.156570	286.038232	920.241258	-73.027988	250.769142	1012.287140	-93.879618	377.165583	808.048702	-92.571145	365.842710	793.935261	-208.078350	281.848752	729.584961	-75.506498	229.566713	659.147835	-96.183779	149.475454	630.142733	-107.719014	252.830800	638.651941	-119.516048	37.609118	531.303038	-125.715146	63.198549	526.922767	-210.115008	-35.698728	543.527467	-168.819981	200.574976	358.887012	-151.495577	131.249599	377.703666	-97.541634	112.615834	1015.602511	-473.142620	192.461713	981.807671	-476.819812	214.673067	1009.578826	-467.079155	246.130423	910.349928	-475.935306	357.862451	795.268658	-452.937349	393.314168	778.364406	-343.945982	355.077771	672.209500	-472.795258	365.091572	588.153880	-451.616849	331.999747	505.998524	-448.987135	393.687490	588.453684	-424.561904	309.197874	361.804923	-440.648554	305.328594	364.393193	-352.463376	229.073890	357.903090	-398.532084	519.848068	271.652582	-399.105196	444.620846	268.911745	-351.869506	443.160496	253.644368	-461.166936	-180.133976	940.629133	-278.937317	-4.378232	85.490130	-483.923008	-15.888837	80.276230	-83.335780	
1505	7.5250	436.498369	1428.709356	-92.652374	451.701334	1437.910296	-396.413533	396.475469	1514.044092	-245.613094	424.187431	1361.036910	-252.705464	508.391959	1130.951908	2.376731	693.290608	908.798353	-88.342343	526.262940	1165.147267	-503.429963	700.466267	910.595544	-439.984133	-83.311383	1160.636878	-280.473888	77.079224	1199.551110	-429.736120	60.529943	1187.519432	-108.942311	115.692322	1152.511286	-383.855744	109.588803	1142.133425	-155.591229	-66.529534	1206.390590	-232.279454	-64.136595	1211.689105	-313.215497	23.554203	1119.437777	-94.038722	46.668316	1090.947323	-458.411062	149.797804	1021.784812	-77.371077	232.405210	989.636296	-76.510909	288.398908	924.888744	-73.257107	251.876799	1016.412564	-94.587018	380.913513	813.765513	-92.816555	369.455266	799.400517	-208.164521	285.174415	736.172477	-75.811627	232.400142	666.176831	-96.555909	152.065094	637.745430	-107.848250	255.925690	645.309559	-119.881655	39.414248	539.545846	-125.891114	64.645763	535.410763	-210.439136	-34.235175	550.696082	-168.923227	204.293466	369.289381	-151.440283	134.758257	387.195035	-97.621258	111.660058	1013.290866	-473.722774	190.670635	977.603097	-477.297382	213.559057	1004.863653	-467.707741	242.700413	904.936043	-476.060316	352.751530	788.178319	-453.210427	386.083047	770.723442	-344.506152	350.343769	664.951842	-472.669727	361.006471	580.794461	-451.415702	328.613741	498.472779	-449.042365	389.507289	581.154071	-424.128903	306.450743	354.093129	-440.686036	302.720983	356.647982	-352.496223	226.647647	350.799681	-398.376673	516.490734	261.664036	-399.300055	442.313533	261.187491	-354.284317	439.604834	244.533808	-461.305618	-180.108688	940.626526	-278.997105	-4.370513	85.474482	-483.923133	-15.875149	80.255320	-83.326887	
1506	7.5300	436.216150	1428.417616	-92.066290	452.168343	1437.908636	-395.637162	396.972026	1513.671284	-244.908968	424.339464	1360.808123	-252.140863	508.188826	1130.758057	2.791422	693.380548	909.106951	-87.832580	526.756267	1165.273056	-502.916713	700.510515	910.348767	-439.787422	-83.007229	1160.888663	-281.278386	78.087532	1199.366447	-430.121524	60.210668	1188.053374	-109.291351	116.590665	1152.249872	-384.236328	109.315526	1142.325271	-156.011501	-66.211800	1206.700988	-233.387295	-63.839552	1211.957882	-313.720360	23.609530	1120.614415	-94.085669	46.700172	1090.057056	-458.651078	150.768466	1024.594669	-77.764085	233.779210	993.565857	-77.060824	290.642716	929.624125	-73.500070	252.878488	1020.360381	-95.542787	384.543697	819.707634	-93.071486	372.662173	805.247815	-207.912476	288.973783	742.606290	-76.728378	235.164218	673.099095	-97.014672	154.667759	645.288067	-108.027212	258.592231	652.296037	-120.264074	41.416086	547.539779	-126.081451	66.457198	543.598989	-210.717469	-32.705018	557.616139	-168.971377	208.493684	379.793617	-151.407583	138.779483	396.737563	-97.656844	110.454001	1011.156891	-474.349597	188.671855	973.724788	-477.763474	212.173886	1000.505931	-468.275285	239.041465	899.869317	-476.237987	347.262025	781.183532	-453.396739	380.493795	763.633478	-344.471834	345.491960	657.876519	-472.565347	356.734194	573.770071	-451.482733	324.858959	491.285994	-449.088518	385.436567	574.136308	-424.011675	303.396563	346.693507	-440.745162	299.897992	349.046660	-352.377831	223.954814	344.250272	-398.027504	512.754792	251.649892	-399.442073	437.568126	250.673515	-352.253397	435.595901	235.513877	-461.423177	-180.097721	940.634100	-279.056562	-4.372205	85.472741	-483.928718	-15.874987	80.260957	-83.341062	
